<svg width="173" height="24" viewBox="0 0 173 24" fill="none" xmlns="http://www.w3.org/2000/svg">
<path d="M161 13C161.552 13 162 12.5523 162 12C162 11.4477 161.552 11 161 11C160.448 11 160 11.4477 160 12C160 12.5523 160.448 13 161 13Z" stroke="#828282" stroke-width="2" stroke-linecap="round" stroke-linejoin="round"/>
<path d="M168 13C168.552 13 169 12.5523 169 12C169 11.4477 168.552 11 168 11C167.448 11 167 11.4477 167 12C167 12.5523 167.448 13 168 13Z" stroke="#828282" stroke-width="2" stroke-linecap="round" stroke-linejoin="round"/>
<path d="M154 13C154.552 13 155 12.5523 155 12C155 11.4477 154.552 11 154 11C153.448 11 153 11.4477 153 12C153 12.5523 153.448 13 154 13Z" stroke="#828282" stroke-width="2" stroke-linecap="round" stroke-linejoin="round"/>
</svg>
